HIERARCHY
ROOT Hips
{
	OFFSET 0.00000 0.00000 0.00000
	CHANNELS 6 Xposition Yposition Zposition Zrotation Yrotation Xrotation 
	JOINT LHipJoint
	{
		OFFSET 0 0 0
		CHANNELS 3 Zrotation Yrotation Xrotation
		JOINT LeftUpLeg
		{
			OFFSET 1.23340 -1.80723 0.69510
			CHANNELS 3 Zrotation Yrotation Xrotation
			JOINT LeftLeg
			{
				OFFSET 2.50056 -6.87023 0.00000
				CHANNELS 3 Zrotation Yrotation Xrotation
				JOINT LeftFoot
				{
					OFFSET 2.85931 -7.85591 0.00000
					CHANNELS 3 Zrotation Yrotation Xrotation
					JOINT LeftToeBase
					{
						OFFSET 0.21001 -0.57700 2.07823
						CHANNELS 3 Zrotation Yrotation Xrotation
						End Site
						{
							OFFSET 0.00000 -0.00000 1.08338
						}
					}
				}
			}
		}
	}
	JOINT RHipJoint
	{
		OFFSET 0 0 0
		CHANNELS 3 Zrotation Yrotation Xrotation
		JOINT RightUpLeg
		{
			OFFSET -1.40842 -1.80723 0.69510
			CHANNELS 3 Zrotation Yrotation Xrotation
			JOINT RightLeg
			{
				OFFSET -2.54876 -7.00266 0.00000
				CHANNELS 3 Zrotation Yrotation Xrotation
				JOINT RightFoot
				{
					OFFSET -2.74835 -7.55104 0.00000
					CHANNELS 3 Zrotation Yrotation Xrotation
					JOINT RightToeBase
					{
						OFFSET -0.22633 -0.62184 2.00890
						CHANNELS 3 Zrotation Yrotation Xrotation
						End Site
						{
							OFFSET -0.00000 -0.00000 1.05493
						}
					}
				}
			}
		}
	}
	JOINT LowerBack
	{
		OFFSET 0 0 0
		CHANNELS 3 Zrotation Yrotation Xrotation
		JOINT Spine
		{
			OFFSET -0.02340 2.02740 -0.12728
			CHANNELS 3 Zrotation Yrotation Xrotation
			JOINT Spine1
			{
				OFFSET -0.00862 2.03614 -0.01188
				CHANNELS 3 Zrotation Yrotation Xrotation
				JOINT Neck
				{
					OFFSET 0 0 0
					CHANNELS 3 Zrotation Yrotation Xrotation
					JOINT Neck1
					{
						OFFSET 0.03380 1.76650 0.27670
						CHANNELS 3 Zrotation Yrotation Xrotation
						JOINT Head
						{
							OFFSET -0.01114 1.80516 -0.21451
							CHANNELS 3 Zrotation Yrotation Xrotation
							End Site
							{
								OFFSET -0.00766 1.81942 -0.10287
							}
						}
					}
				}
				JOINT LeftShoulder
				{
					OFFSET 0 0 0
					CHANNELS 3 Zrotation Yrotation Xrotation
					JOINT LeftArm
					{
						OFFSET 3.22358 1.39475 0.18630
						CHANNELS 3 Zrotation Yrotation Xrotation
						JOINT LeftForeArm
						{
							OFFSET 5.45077 -0.00000 0.00000
							CHANNELS 3 Zrotation Yrotation Xrotation
							JOINT LeftHand
							{
								OFFSET 3.05488 -0.00000 0.00000
								CHANNELS 3 Zrotation Yrotation Xrotation
								JOINT LeftFingerBase
								{
									OFFSET 0 0 0
									CHANNELS 3 Zrotation Yrotation Xrotation
									JOINT LeftHandIndex1
									{
										OFFSET 0.63882 -0.00000 0.00000
										CHANNELS 3 Zrotation Yrotation Xrotation
										End Site
										{
											OFFSET 0.51503 -0.00000 0.00000
										}
									}
								}
								JOINT LThumb
								{
									OFFSET 0 0 0
									CHANNELS 3 Zrotation Yrotation Xrotation
									End Site
									{
										OFFSET 0.52290 -0.00000 0.52290
									}
								}
							}
						}
					}
				}
				JOINT RightShoulder
				{
					OFFSET 0 0 0
					CHANNELS 3 Zrotation Yrotation Xrotation
					JOINT RightArm
					{
						OFFSET -3.57143 1.14055 0.30691
						CHANNELS 3 Zrotation Yrotation Xrotation
						JOINT RightForeArm
						{
							OFFSET -4.88702 -0.00000 -0.00000
							CHANNELS 3 Zrotation Yrotation Xrotation
							JOINT RightHand
							{
								OFFSET -3.22603 -0.00000 0.00000
								CHANNELS 3 Zrotation Yrotation Xrotation
								JOINT RightFingerBase
								{
									OFFSET 0 0 0
									CHANNELS 3 Zrotation Yrotation Xrotation
									JOINT RightHandIndex1
									{
										OFFSET -0.71629 -0.00000 0.00000
										CHANNELS 3 Zrotation Yrotation Xrotation
										End Site
										{
											OFFSET -0.57749 -0.00000 0.00000
										}
									}
								}
								JOINT RThumb
								{
									OFFSET 0 0 0
									CHANNELS 3 Zrotation Yrotation Xrotation
									End Site
									{
										OFFSET -0.58631 -0.00000 0.58631
									}
								}
							}
						}
					}
				}
			}
		}
	}
}
MOTION
Frames: 11
Frame Time: .0083333
1.6902 18.5266 -0.0181 0 0 0 0 0 0 -21 0 0 0 0 0 0 0 0 0 0 0 0 0 0 21 0 0 0 0 0 0 0 0 0 0 0 0 0 0 0 0 0 0 0 0 0 0 -16 0 0 21 0 0 11 0 0 0 -8 0 0 0 0 0 0 0 0 0 0 0 0 0 0 0 0 0 0 0 0 8 0 0 0 0 0 0 0 0 0 0 0 0 0 0 0 0 0
1.6902 18.5266 -0.0181 11.8962 85.0623 23.5729 0.0000 0.0000 0.0000 -21.2838 4.8602 -16.5256 0.8762 5.9677 16.6906 0.5859 -5.9969 -13.6638 1.7341 -8.2887 -23.5946 0.0000 0.0000 0.0000 14.0660 4.4738 -5.2387 0.0000 0.0000 -0.0000 -0.0711 3.0981 -4.8932 -0.2525 3.2329 -8.9279 -0.4592 -1.5134 -11.7134 -0.2169 -1.8131 -3.7966 -0.2125 -0.8450 2.6040 5.1143 4.5238 -15.9569 -5.2882 6.2600 18.9322 -1.8527 2.8079 8.8905 0.0000 0.0000 0.0000 -79.4546 -5.0755 64.0440 62.8301 -57.0181 -36.7057 -0.0000 0.0000 -13.0796 18.3819 29.3894 9.2620 -7.1250 0.0000 -0.0000 -14.6088 60.0735 -5.4421 0.0000 0.0000 0.0000 75.9163 6.0486 25.5938 -58.8671 56.0004 -33.4001 0.0000 0.0000 179.2100 -25.2636 -9.3273 4.3738 7.1250 -0.0000 -0.0000 1.4844 -40.2692 0.1732
1.6988 18.5264 -0.0054 12.9586 85.0987 24.7139 0.0000 0.0000 0.0000 -21.3516 4.8680 -16.5216 0.8634 5.9251 16.5673 0.5807 -6.0171 -13.6061 1.7563 -8.3389 -23.7483 0.0000 0.0000 0.0000 14.0143 4.4177 -5.3049 0.0000 0.0000 -0.0000 -0.0698 3.1866 -4.8730 -0.2763 3.3812 -9.3418 -0.5457 -1.4383 -11.7481 -0.1902 -1.7017 -3.8501 -0.1208 -0.7881 2.5706 5.3180 4.9741 -16.0319 -5.5380 6.9140 19.2092 -1.8824 3.1021 9.0543 0.0000 0.0000 0.0000 -79.5860 -3.6571 63.2149 60.1316 -56.3449 -34.4506 -0.0000 0.0000 -12.5476 17.5069 27.6990 8.3413 -7.1250 0.0000 -0.0000 -14.4814 58.2215 -4.7487 0.0000 0.0000 0.0000 76.8920 4.4053 25.6287 -58.6208 55.9311 -33.1960 0.0000 -0.0000 -179.1750 -25.7886 -9.2784 4.4545 7.1250 -0.0000 -0.0000 1.0186 -40.2616 0.1190
1.7108 18.5266 0.0078 13.5943 85.0924 25.2365 0.0000 0.0000 0.0000 -21.3745 5.0882 -16.3723 0.8564 5.9015 16.4990 0.5753 -6.1563 -13.5541 1.7114 -8.2371 -23.4366 0.0000 0.0000 0.0000 13.9995 4.3551 -5.1385 0.0000 -0.0000 0.0000 -0.0700 3.2657 -4.8987 -0.2539 3.2418 -8.9527 -0.6161 -1.3538 -11.5570 -0.1421 -1.5857 -3.8852 -0.0107 -0.7302 2.4328 5.4507 5.3681 -15.9996 -5.8191 7.5167 19.3806 -1.9186 3.3662 9.1612 0.0000 0.0000 0.0000 -79.7887 -2.2754 62.5094 57.6418 -55.6481 -32.3864 -0.0000 0.0000 -12.0484 17.0153 27.7020 8.0967 -7.1250 0.0000 -0.0000 -15.0028 58.1162 -4.8864 0.0000 0.0000 0.0000 77.9017 2.8312 25.4542 -57.9988 55.7526 -32.6813 0.0000 -0.0000 -177.3850 -26.5091 -9.3356 4.6258 7.1250 -0.0000 -0.0000 0.3890 -40.3891 0.0442
1.7184 18.5243 0.0192 14.9493 85.3308 26.6424 0.0000 0.0000 0.0000 -21.3692 5.0082 -16.3451 0.8466 5.8688 16.4041 0.5689 -6.2240 -13.4867 1.7408 -8.3040 -23.6412 0.0000 0.0000 0.0000 14.0114 4.0983 -5.2113 0.0000 -0.0000 0.0000 -0.0695 3.3665 -4.9100 -0.2182 3.0069 -8.2981 -0.6368 -1.3237 -11.4916 -0.1198 -1.5423 -3.9544 0.0322 -0.7071 2.3262 5.5943 5.6798 -15.8958 -6.0755 7.9902 19.4197 -1.9668 3.5751 9.2034 -0.0000 -0.0000 0.0000 -79.8784 -1.0879 61.9679 55.3956 -54.9526 -30.5396 -0.0000 0.0000 -11.5064 16.0425 28.5036 7.8134 -7.1250 0.0000 -0.0000 -16.5328 58.6770 -5.6262 -0.0000 -0.0000 0.0000 78.9746 1.3806 25.1098 -57.0188 55.4617 -31.8727 0.0000 -0.0000 -175.4650 -27.0474 -9.3896 4.7616 7.1250 -0.0000 -0.0000 -0.0818 -40.4980 -0.0091
1.7217 18.5225 0.0320 18.0115 85.6667 29.8809 0.0000 0.0000 0.0000 -21.4089 4.5440 -16.3752 0.8392 5.8436 16.3313 0.5647 -6.1626 -13.4338 1.7457 -8.3149 -23.6748 0.0000 0.0000 0.0000 13.9481 3.7334 -5.4550 0.0000 0.0000 -0.0000 -0.0677 3.4725 -4.8857 -0.2162 2.9937 -8.2611 -0.8059 -1.3653 -11.5469 -0.0802 -1.5752 -4.0346 0.1639 -0.7204 2.2787 5.7571 5.9757 -15.8541 -6.3861 8.4494 19.4817 -2.0365 3.7711 9.2696 -0.0000 -0.0000 0.0000 -79.9725 0.0643 61.3898 53.4429 -54.2931 -28.9473 -0.0000 0.0000 -11.0854 15.1289 29.2568 7.5270 -7.1250 0.0000 -0.0000 -18.0051 59.1918 -6.3710 -0.0000 -0.0000 0.0000 80.0343 0.0731 24.6623 -55.8176 55.0883 -30.8854 0.0000 -0.0000 -173.3770 -27.6861 -9.3939 4.8950 7.1250 -0.0000 -0.0000 -0.6460 -40.5615 -0.0707
1.7316 18.5217 0.0445 20.1979 85.7750 32.0971 0.0000 0.0000 0.0000 -21.4673 4.3648 -16.3110 0.8372 5.8366 16.3111 0.5660 -6.1413 -13.4469 1.7206 -8.2581 -23.5009 0.0000 0.0000 0.0000 13.8751 3.5514 -5.4757 0.0000 0.0000 0.0000 -0.0687 3.5160 -4.9277 -0.2191 3.0130 -8.3150 -0.9417 -1.3228 -11.5217 -0.0709 -1.5031 -4.0604 0.2603 -0.6832 2.2412 5.9093 6.2424 -15.8750 -6.6107 8.8543 19.6224 -2.0801 3.9474 9.3685 0.0000 0.0000 0.0000 -80.0530 1.2250 60.7135 51.4572 -53.5666 -27.3422 -0.0000 0.0000 -10.8574 14.6990 29.4714 7.3540 -7.1250 0.0000 -0.0000 -18.6098 59.2974 -6.6416 0.0000 0.0000 0.0000 81.1669 -1.1157 24.0630 -54.3664 54.6116 -29.6988 0.0000 -0.0000 -171.1200 -28.4151 -9.3994 5.0495 7.1250 -0.0000 -0.0000 -1.2911 -40.6355 -0.1390
1.7378 18.5219 0.0561 21.6180 85.9829 33.5530 0.0000 0.0000 0.0000 -21.4092 4.1767 -16.2673 0.8352 5.8301 16.2922 0.5644 -6.1422 -13.4284 1.7057 -8.2242 -23.3971 0.0000 0.0000 0.0000 13.9234 3.3259 -5.5266 0.0000 -0.0000 0.0000 -0.0694 3.5985 -4.9704 -0.2283 3.0753 -8.4884 -0.9497 -1.3215 -11.5092 -0.0471 -1.5012 -4.0630 0.2901 -0.6819 2.2326 6.0970 6.5244 -15.8173 -6.8734 9.2719 19.6167 -2.1425 4.1309 9.4087 0.0000 0.0000 0.0000 -80.1196 2.2912 59.9756 49.3098 -52.7133 -25.6240 -0.0000 0.0000 -10.4632 14.4970 29.5311 7.2629 -7.1250 0.0000 -0.0000 -18.8651 59.3078 -6.7415 0.0000 0.0000 0.0000 82.3683 -2.2113 23.3948 -52.9568 54.1206 -28.5531 0.0000 -0.0000 -168.7870 -29.0640 -9.3394 5.1537 7.1250 -0.0000 -0.0000 -1.8696 -40.6287 -0.2016
1.7422 18.5236 0.0650 20.7999 86.3414 32.8782 0.0000 0.0000 0.0000 -21.1542 4.0579 -16.3867 0.8316 5.8176 16.2561 0.5543 -6.2808 -13.3244 1.7027 -8.2173 -23.3761 0.0000 0.0000 0.0000 14.1931 3.0915 -5.6943 0.0000 0.0000 -0.0000 -0.0677 3.6930 -4.9490 -0.2130 2.9712 -8.1985 -0.7379 -1.3155 -11.5922 0.0424 -1.5165 -4.0870 0.2604 -0.6890 2.2499 6.2462 6.7684 -15.7024 -7.1715 9.6443 19.4689 -2.2189 4.2899 9.3876 0.0000 -0.0000 0.0000 -80.1344 3.2856 59.5053 47.3620 -51.8745 -24.0829 -0.0000 0.0000 -10.3450 15.2131 29.4989 7.6268 -7.1250 0.0000 -0.0000 -18.0861 59.4410 -6.5094 0.0000 -0.0000 0.0000 83.4768 -3.2867 22.7252 -51.6677 53.6463 -27.5117 0.0000 -0.0000 -166.5970 -29.3091 -9.0779 5.0616 7.1250 -0.0000 -0.0000 -2.0987 -40.3544 -0.2405
1.7532 18.5240 0.0724 20.7408 86.4177 32.8371 0.0000 0.0000 0.0000 -21.1354 4.4563 -16.5259 0.8301 5.8127 16.2418 0.5381 -6.6969 -13.1817 1.7455 -8.3145 -23.6735 0.0000 0.0000 0.0000 14.2625 3.0223 -5.6794 0.0000 -0.0000 0.0000 -0.0680 3.7445 -4.9728 -0.2032 2.9025 -8.0074 -0.6664 -1.2327 -11.6372 0.0955 -1.4155 -4.0825 0.2877 -0.6387 2.2777 6.2927 6.9263 -15.6330 -7.4016 9.9228 19.4983 -2.2667 4.4027 9.4218 0.0000 0.0000 0.0000 -80.1770 4.2864 58.9871 45.4774 -51.0002 -22.6092 -0.0000 0.0000 -10.1166 15.6609 29.0001 7.7400 -7.1250 0.0000 -0.0000 -17.2663 59.0676 -6.0479 0.0000 0.0000 0.0000 84.5887 -4.2096 21.7691 -50.0045 52.9973 -26.1778 0.0000 -0.0000 -164.2440 -29.3660 -9.0119 5.0370 7.1250 -0.0000 -0.0000 -2.1519 -40.2846 -0.2503
1.7574 18.5256 0.0816 24.4072 86.4573 36.5599 0.0000 0.0000 0.0000 -21.3427 4.5943 -16.6516 0.8299 5.8117 16.2392 0.5264 -6.9381 -13.0782 1.8110 -8.4609 -24.1229 0.0000 0.0000 0.0000 14.0936 2.8713 -5.7566 0.0000 0.0000 -0.0000 -0.0682 3.7696 -4.9861 -0.1904 2.8103 -7.7511 -0.8445 -1.1875 -11.6249 0.0847 -1.3348 -4.0935 0.3879 -0.5974 2.2625 6.2053 7.0270 -15.7411 -7.3956 10.1008 19.6773 -2.2208 4.4756 9.5127 -0.0000 -0.0000 0.0000 -80.2763 5.0997 58.2680 43.4804 -50.0019 -21.0681 -0.0000 0.0000 -9.5911 15.2051 28.5338 7.3972 -7.1250 0.0000 -0.0000 -17.4338 58.5196 -5.8782 -0.0000 -0.0000 0.0000 85.7135 -4.8857 20.5603 -47.8763 52.1022 -24.4881 0.0000 -0.0000 -162.0480 -29.2933 -9.1467 5.0963 7.1250 -0.0000 -0.0000 -2.0817 -40.4313 -0.2346
